# xmcd
#
# Track frame offsets: 
#        150
#        35307
#        83137
#        111122
#        132835
#        155262
#        183682
#        207647
#
# Disc length: 3225 seconds
#
# Revision: 2
# Processed by: cddbd v1.5.2PL0 Copyright (c) Steve Scherf et al.
# Submitted via: ExactAudioCopy v0.99pb5
#
DISCID=680c9708
DTITLE=Wallace Roney - Prototype
DYEAR=2004
DGENRE=Jazz
TTITLE0=Cyberspace
TTITLE1=Shadow Dance
TTITLE2=Prototype
TTITLE3=Then and Now
TTITLE4=Let's Stay Together
TTITLE5=Quadrant 329-4-526
TTITLE6=Three Views of The Blues
TTITLE7=Secret Identity
EXTD=YEAR: 2004
EXTT0=
EXTT1=
EXTT2=
EXTT3=
EXTT4=
EXTT5=
EXTT6=
EXTT7=
PLAYORDER=
